# xmcd
#
# Track frame offsets:
#	150
#	18373
#	36487
#	56384
#	73406
#	97783
#	111911
#	121400
#	139564
#	149741
#	168111
#	186205
#
# Disc length: 2726 seconds
#
# Revision: 1
# Processed by: cddbd v1.5.1PL0 Copyright (c) Steve Scherf et al.
# Submitted via: audiograbber 1.83.01
#
DISCID=ab0aa40c
DTITLE=Toby Keith  - Shock 'N Y'all
DYEAR=2003
DGENRE=Country
TTITLE0=I Love This Bar
TTITLE1=Whiskey Girl
TTITLE2=American Soldier
TTITLE3=If I Was Jesus
TTITLE4=Time For Me To Ride
TTITLE5=Sweet 
TTITLE6=Don't Leave,I Think I Love You
TTITLE7=Nights I Can't Remember
TTITLE8=Baddest Boots
TTITLE9=The Critic
TTITLE10=The Taliban Song
TTITLE11=Weed With Willie
EXTD=
EXTT0=
EXTT1=
EXTT2=
EXTT3=
EXTT4=
EXTT5=
EXTT6=
EXTT7=
EXTT8=
EXTT9=
EXTT10=
EXTT11=
PLAYORDER=
